<?xml version="1.0" encoding="UTF-8"?> <!-- Generator: Adobe Illustrator 25.2.1, SVG Export Plug-In . SVG Version: 6.00 Build 0) --> <svg xmlns="http://www.w3.org/2000/svg" xmlns:xlink="http://www.w3.org/1999/xlink" version="1.1" id="Layer_1" x="0px" y="0px" viewBox="0 0 61 85.6" style="enable-background:new 0 0 61 85.6;" xml:space="preserve"> <style type="text/css"> .st0{fill:#BFFFFF;} .st1{fill-rule:evenodd;clip-rule:evenodd;} </style> <g transform="translate(-507 -1026)"> <circle class="st0" cx="537.5" cy="1056.5" r="30.5"></circle> <g transform="translate(487.359 1022.337)"> <path class="st1" d="M71.3,40.5c3.5-4.6-1.5-9.4-2.2-12.8c3.8-8.7-8-9.4-12.4-11.9c-1-1.5-2.6-2.8-4.1-3.6 c-5.1-3.6-10.2,0.1-13,4.6c-6.7-0.1-13.9,6.9-10.2,13.7c3.4,3.3-4.1,6.9-1,12.2c0.1,4.3,5.2,4.2,6.8,6.5c0.7,5.5,7.7,8,12.5,7.1 c2.5-1.4,0.5,4.1,0.6,5.4c-0.1,2.2-6.3-2-8.7-1c-5.5,1-12.8,6.6-5.7,11c20.2,8.7,11.6-7.5,15.6,17.2c8.7,2.2-0.2-16.3,4.6-17.4 c3.9,2.4,8.9,3.4,13.3,1.4c12.8-5.6-5.2-16.6-12.4-11c-4.1,3.2-1.3-5.5-1.4-7.7C60.1,55.7,65.7,50.8,66,44 C67.9,43.3,70.1,42.3,71.3,40.5z M47.8,69.1c-3.1,2.2-16.9,0.5-10.5-3.7C41,63.1,49.7,65.1,47.8,69.1z M54.8,66.9 c3.6-3.3,9-3.2,12.1,0.6C64.3,70.2,56.2,70.7,54.8,66.9z M67.1,37.3c-0.5,2.1-2.1,2-3.9,2.7c-3.6,2.1-1.3,10.9-7.9,10.4 c-6.4-1.7-4-0.8-9.2,2.4c-4,0.8-8.4-2.4-7.7-6.8c-1.1-2.1-5.1-1.2-6.3-3.7c-3.2-8.2,9.7-8.2,3-12c-6.2-4.5,1.2-10.6,6.6-9.8 c1.7-1.7,2.6-4.9,5.4-5.7c5.1-1.2,5,5.2,8.2,6.3c3-0.5,6,0,8.4,1.7c1.1,0.5,0.8,2.2,0.4,3C61.1,30.1,69.6,33.4,67.1,37.3 L67.1,37.3z"></path> <path class="st1" d="M56.4,32.8c-3.2-9.9-18.4-5.2-14.9,4.7C46.4,44.5,57.7,42.3,56.4,32.8z M51.5,34.4c0.7,5.2-8.7,2.8-6.2-1.3 C46.5,29.2,52.7,31.5,51.5,34.4z"></path> </g> </g> </svg> 